<?xml version="1.0" encoding="UTF-8" standalone="no" ?>
<!DOCTYPE svg PUBLIC "-//W3C//DTD SVG 1.1//EN" "http://www.w3.org/Graphics/SVG/1.1/DTD/svg11.dtd">
<svg xmlns="http://www.w3.org/2000/svg" xmlns:xlink="http://www.w3.org/1999/xlink" version="1.1" width="1080" height="1080" viewBox="0 0 1080 1080" xml:space="preserve">
<desc>Created with Fabric.js 5.2.4</desc>
<defs>
</defs>
<g transform="matrix(1 0 0 1 540 540)" id="0ddc4304-7676-4f24-9a0d-101d5084c1f9"  >
<rect style="stroke: none; stroke-width: 1; stroke-dasharray: none; stroke-linecap: butt; stroke-dashoffset: 0; stroke-linejoin: miter; stroke-miterlimit: 4; fill: rgb(255,255,255); fill-rule: nonzero; opacity: 1; visibility: hidden;" vector-effect="non-scaling-stroke"  x="-540" y="-540" rx="0" ry="0" width="1080" height="1080" />
</g>
<g transform="matrix(1 0 0 1 540 540)" id="592ac7ce-58a0-4a66-9af5-9aba34bfd9e1"  >
</g>
<g transform="matrix(25 0 0 25 622.67 540.9)"  >
<path style="stroke: none; stroke-width: 1; stroke-dasharray: none; stroke-linecap: butt; stroke-dashoffset: 0; stroke-linejoin: miter; stroke-miterlimit: 4; fill: rgb(144,144,144); fill-rule: nonzero; opacity: 1;" vector-effect="non-scaling-stroke"  transform=" translate(-19.31, -16.04)" d="M 24.1 2.072 L 24.1 2.072 L 29.664 7.872 L 29.664 29.928 L 8.879 29.928 L 8.879 30 L 29.735 30 L 29.735 7.945 L 24.1 2.072" stroke-linecap="round" />
</g>
<g transform="matrix(25 0 0 25 620.9 539.1)"  >
<path style="stroke: none; stroke-width: 1; stroke-dasharray: none; stroke-linecap: butt; stroke-dashoffset: 0; stroke-linejoin: miter; stroke-miterlimit: 4; fill: rgb(244,244,244); fill-rule: nonzero; opacity: 1;" vector-effect="non-scaling-stroke"  transform=" translate(-19.24, -15.96)" d="M 24.031 2 L 8.808 2 L 8.808 29.928 L 29.664 29.928 L 29.664 7.873 L 24.03 2" stroke-linecap="round" />
</g>
<g transform="matrix(25 0 0 25 447.87 312.84)"  >
<path style="stroke: none; stroke-width: 1; stroke-dasharray: none; stroke-linecap: butt; stroke-dashoffset: 0; stroke-linejoin: miter; stroke-miterlimit: 4; fill: rgb(122,123,124); fill-rule: nonzero; opacity: 1;" vector-effect="non-scaling-stroke"  transform=" translate(-12.32, -6.91)" d="M 8.655 3.5 L 2.265 3.5 L 2.265 10.327 L 22.365000000000002 10.327 L 22.365000000000002 3.5 L 8.655 3.5" stroke-linecap="round" />
</g>
<g transform="matrix(25 0 0 25 450.84 309.88)"  >
<path style="stroke: none; stroke-width: 1; stroke-dasharray: none; stroke-linecap: butt; stroke-dashoffset: 0; stroke-linejoin: miter; stroke-miterlimit: 4; fill: rgb(221,32,37); fill-rule: nonzero; opacity: 1;" vector-effect="non-scaling-stroke"  transform=" translate(-12.43, -6.79)" d="M 22.472 10.211 L 2.395 10.211 L 2.395 3.379 L 22.472 3.379 L 22.472 10.211" stroke-linecap="round" />
</g>
<g transform="matrix(25 0 0 25 369.2 313.35)"  >
<path style="stroke: none; stroke-width: 1; stroke-dasharray: none; stroke-linecap: butt; stroke-dashoffset: 0; stroke-linejoin: miter; stroke-miterlimit: 4; fill: rgb(70,70,72); fill-rule: nonzero; opacity: 1;" vector-effect="non-scaling-stroke"  transform=" translate(-9.17, -6.93)" d="M 9.052 4.534 L 9.022 4.534 L 8.815 4.534 L 7.745 4.534 L 7.745 9.334 L 8.773 9.334 L 8.773 7.715 L 9 7.728 C 9.220570743432098 7.724204712043554 9.439069117977516 7.684692641221585 9.647 7.611 C 9.829302967628134 7.548297493091622 9.997010539546196 7.449305802567979 10.14 7.319999999999999 C 10.285498322656824 7.196819867304415 10.400212430221773 7.041356569291023 10.475000000000001 6.866 C 10.57529474545309 6.5744977817244585 10.611119517391415 6.26469880153399 10.580000000000002 5.957999999999998 C 10.573754768986955 5.7389076822987715 10.535344365363185 5.521922595160984 10.466000000000001 5.313999999999997 C 10.33836429859408 5.010524482681138 10.089069991280105 4.7746565063287605 9.779000000000002 4.663999999999999 C 9.646408980929285 4.615998468532865 9.509415262940259 4.581163880095557 9.37 4.559999999999999 C 9.264425850910655 4.543710838812384 9.15781850763373 4.535021839046867 9.050999999999998 4.534000000000001 M 8.862 6.828 L 8.773 6.828 L 8.773 5.348 L 8.966 5.348 C 9.138538791970994 5.335557602736393 9.307392117946149 5.402142465484765 9.424999999999999 5.529 C 9.545318524236032 5.690014722228102 9.609594288670495 5.886003118700401 9.607999999999999 6.087 C 9.607999999999999 6.333 9.607999999999999 6.556 9.386 6.713 C 9.226066818020481 6.80096416366678 9.044022506724573 6.840569223757874 8.861999999999998 6.827" stroke-linecap="round" />
</g>
<g transform="matrix(25 0 0 25 459.49 313.22)"  >
<path style="stroke: none; stroke-width: 1; stroke-dasharray: none; stroke-linecap: butt; stroke-dashoffset: 0; stroke-linejoin: miter; stroke-miterlimit: 4; fill: rgb(70,70,72); fill-rule: nonzero; opacity: 1;" vector-effect="non-scaling-stroke"  transform=" translate(-12.78, -6.93)" d="M 12.533 4.521 C 12.421999999999999 4.521 12.314 4.529 12.238 4.532 L 12 4.538 L 11.22 4.538 L 11.22 9.338000000000001 L 12.138 9.338000000000001 C 12.488825112111803 9.347616448617792 12.838117530747995 9.288155190581477 13.166 9.163 C 13.429912746911675 9.058322009087563 13.66360889001205 8.889579646937147 13.846 8.672 C 14.023362958704581 8.452455322745346 14.150659833916373 8.19683773686429 14.219 7.923000000000001 C 14.297562957530694 7.612868705370774 14.33587779561176 7.2939144830994485 14.333 6.974 C 14.35239750125227 6.596157549300852 14.323158028014653 6.21738874080898 14.245999999999999 5.847000000000001 C 14.172782307856028 5.574362822224343 14.03566341243923 5.323092446373062 13.846 5.114000000000002 C 13.697193027847531 4.945162613646397 13.515035097583704 4.808969768589329 13.310999999999998 4.714 C 13.135780162631015 4.632916789274503 12.951462137030143 4.57315611795036 12.762 4.536000000000001 C 12.686657986832511 4.523554167407384 12.610354627914054 4.51786488187399 12.534 4.519000000000001 M 12.352 8.456000000000001 L 12.252 8.456000000000001 L 12.252 5.392 L 12.265 5.392 C 12.471158554505106 5.368279526944254 12.679749638332714 5.405478270226844 12.865 5.4990000000000006 C 13.000662867179242 5.6073267565923794 13.111205853718548 5.743799579480411 13.189 5.899 C 13.272955545485274 6.062335052343636 13.321351574667219 6.241604850580978 13.331 6.425000000000001 C 13.34 6.6450000000000005 13.331 6.825000000000001 13.331 6.974000000000001 C 13.335071635506011 7.145636991414085 13.324029030298849 7.317299308725412 13.298 7.487000000000001 C 13.267178337719287 7.661229072600761 13.210201586710808 7.829799341856614 13.129 7.987000000000001 C 13.03709097399209 8.133155507620357 12.912913192264835 8.256307026688711 12.766 8.347000000000001 C 12.642622694164007 8.42679804019707 12.49652000299221 8.4640261297745 12.35 8.453000000000001" stroke-linecap="round" />
</g>
<g transform="matrix(25 0 0 25 545.37 313.45)"  >
<path style="stroke: none; stroke-width: 1; stroke-dasharray: none; stroke-linecap: butt; stroke-dashoffset: 0; stroke-linejoin: miter; stroke-miterlimit: 4; fill: rgb(70,70,72); fill-rule: nonzero; opacity: 1;" vector-effect="non-scaling-stroke"  transform=" translate(-16.21, -6.94)" d="M 17.43 4.538 L 15 4.538 L 15 9.338000000000001 L 16.028 9.338000000000001 L 16.028 7.434 L 17.328 7.434 L 17.328 6.542 L 16.028 6.542 L 16.028 5.43 L 17.427999999999997 5.43 L 17.427999999999997 4.538" stroke-linecap="round" />
</g>
<g transform="matrix(25 0 0 25 809.26 265.34)"  >
<path style="stroke: none; stroke-width: 1; stroke-dasharray: none; stroke-linecap: butt; stroke-dashoffset: 0; stroke-linejoin: miter; stroke-miterlimit: 4; fill: rgb(144,144,144); fill-rule: nonzero; opacity: 1;" vector-effect="non-scaling-stroke"  transform=" translate(-26.77, -5.01)" d="M 23.954 2.077 L 23.954 7.95 L 29.587 7.95 L 23.954 2.077 Z" stroke-linecap="round" />
</g>
<g transform="matrix(25 0 0 25 811.19 263.41)"  >
<path style="stroke: none; stroke-width: 1; stroke-dasharray: none; stroke-linecap: butt; stroke-dashoffset: 0; stroke-linejoin: miter; stroke-miterlimit: 4; fill: rgb(244,244,244); fill-rule: nonzero; opacity: 1;" vector-effect="non-scaling-stroke"  transform=" translate(-26.85, -4.94)" d="M 24.031 2 L 24.031 7.873 L 29.663999999999998 7.873 L 24.031 2 Z" stroke-linecap="round" />
</g>
<g transform="matrix(25 0 0 25 367.3 311.42)"  >
<path style="stroke: none; stroke-width: 1; stroke-dasharray: none; stroke-linecap: butt; stroke-dashoffset: 0; stroke-linejoin: miter; stroke-miterlimit: 4; fill: rgb(255,255,255); fill-rule: nonzero; opacity: 1;" vector-effect="non-scaling-stroke"  transform=" translate(-9.09, -6.86)" d="M 8.975 4.457 L 8.945 4.457 L 8.738 4.457 L 7.668 4.457 L 7.668 9.257 L 8.7 9.257 L 8.7 7.639 L 8.927999999999999 7.652 C 9.148570743432098 7.648204712043555 9.367069117977515 7.608692641221586 9.575 7.535 C 9.757291328148852 7.4722722661919 9.924994078030998 7.373283421940977 10.068 7.244 C 10.212407364525657 7.1204892786695755 10.32607467594901 6.965052654012339 10.4 6.79 C 10.50029474545309 6.498497781724459 10.536119517391414 6.18869880153399 10.505 5.881999999999999 C 10.498754768986954 5.662907682298772 10.460344365363184 5.445922595160984 10.391 5.237999999999998 C 10.263364298594079 4.934524482681138 10.014069991280104 4.698656506328762 9.704 4.587999999999999 C 9.570798123192713 4.539531050615997 9.433127585840735 4.504359745453082 9.293000000000001 4.482999999999999 C 9.187425850910657 4.466710838812383 9.080818507633731 4.458021839046866 8.974 4.456999999999999 M 8.785 6.751 L 8.696 6.751 L 8.696 5.271 L 8.89 5.271 C 9.062538791970997 5.258557602736393 9.23139211794615 5.325142465484765 9.349 5.452 C 9.469318524236034 5.613014722228102 9.533594288670496 5.809003118700401 9.532 6.01 C 9.532 6.256 9.532 6.479 9.31 6.636 C 9.150066818020484 6.723964163666779 8.968022506724576 6.763569223757873 8.786000000000001 6.75" stroke-linecap="round" />
</g>
<g transform="matrix(25 0 0 25 457.64 311.3)"  >
<path style="stroke: none; stroke-width: 1; stroke-dasharray: none; stroke-linecap: butt; stroke-dashoffset: 0; stroke-linejoin: miter; stroke-miterlimit: 4; fill: rgb(255,255,255); fill-rule: nonzero; opacity: 1;" vector-effect="non-scaling-stroke"  transform=" translate(-12.71, -6.85)" d="M 12.456 4.444 C 12.344999999999999 4.444 12.237 4.452 12.161 4.455 L 11.926 4.461 L 11.146 4.461 L 11.146 9.261 L 12.064 9.261 C 12.414825112111803 9.27061644861779 12.764117530747995 9.211155190581476 13.092 9.085999999999999 C 13.355912746911676 8.981322009087561 13.58960889001205 8.812579646937145 13.772 8.594999999999999 C 13.949362958704581 8.375455322745344 14.076659833916374 8.11983773686429 14.145 7.845999999999999 C 14.223562957530694 7.535868705370772 14.26187779561176 7.216914483099447 14.259 6.8969999999999985 C 14.27839750125227 6.51915754930085 14.249158028014653 6.140388740808978 14.172 5.77 C 14.098782307856029 5.497362822224341 13.961663412439231 5.24609244637306 13.772 5.037 C 13.623193027847531 4.868162613646395 13.441035097583704 4.731969768589328 13.236999999999998 4.636999999999999 C 13.061780162631015 4.555916789274502 12.877462137030143 4.496156117950358 12.688 4.459 C 12.612657986832511 4.446554167407382 12.536354627914054 4.440864881873988 12.46 4.441999999999999 M 12.278 8.379 L 12.178 8.379 L 12.178 5.315 L 12.191 5.315 C 12.397158554505106 5.291279526944254 12.605749638332714 5.328478270226844 12.791 5.422000000000001 C 12.926662867179243 5.5303267565923795 13.037205853718548 5.666799579480411 13.115 5.822 C 13.198955545485274 5.985335052343636 13.247351574667219 6.164604850580978 13.257 6.348000000000001 C 13.266 6.5680000000000005 13.257 6.748000000000001 13.257 6.897000000000001 C 13.261071635506012 7.068636991414085 13.25002903029885 7.240299308725412 13.224 7.410000000000001 C 13.193178337719287 7.584229072600761 13.136201586710808 7.752799341856614 13.055 7.910000000000001 C 12.96309097399209 8.056155507620357 12.838913192264835 8.179307026688711 12.692 8.270000000000001 C 12.568622694164008 8.34979804019707 12.42252000299221 8.3870261297745 12.276 8.376000000000001" stroke-linecap="round" />
</g>
<g transform="matrix(25 0 0 25 543.45 311.53)"  >
<path style="stroke: none; stroke-width: 1; stroke-dasharray: none; stroke-linecap: butt; stroke-dashoffset: 0; stroke-linejoin: miter; stroke-miterlimit: 4; fill: rgb(255,255,255); fill-rule: nonzero; opacity: 1;" vector-effect="non-scaling-stroke"  transform=" translate(-16.14, -6.86)" d="M 17.353 4.461 L 14.923000000000002 4.461 L 14.923000000000002 9.261 L 15.951000000000002 9.261 L 15.951000000000002 7.357 L 17.251 7.357 L 17.251 6.465 L 15.951 6.465 L 15.951 5.353 L 17.351 5.353 L 17.351 4.461" stroke-linecap="round" />
</g>
<g transform="matrix(0.53 0 0 0.53 630.6 624.75)"  >
<g style="" vector-effect="non-scaling-stroke"   >
		<g transform="matrix(22.22 0 0 22.22 82 0)"  >
<path style="stroke: none; stroke-width: 1; stroke-dasharray: none; stroke-linecap: butt; stroke-dashoffset: 0; stroke-linejoin: miter; stroke-miterlimit: 4; fill: rgb(244,144,12); fill-rule: nonzero; opacity: 1;" vector-effect="non-scaling-stroke"  transform=" translate(-21.67, -17.22)" d="M 35.22 30.741 L 35.196 30.765 C 34.226 31.735 32.653999999999996 31.735 31.685 30.765 L 7.835 6.915 C 7.253237600534483 6.333139194940946 7.253237600534483 5.389860805059054 7.835 4.808 L 9.264 3.3789999999999996 C 9.845860805059052 2.7972376005344834 10.789139194940944 2.7972376005344834 11.370999999999999 3.3789999999999996 L 35.221000000000004 27.229 C 36.190000000000005 28.198999999999998 36.190000000000005 29.771 35.220000000000006 30.741 z" stroke-linecap="round" />
</g>
		<g transform="matrix(22.22 0 0 22.22 -169.63 -137.27)"  >
<path style="stroke: none; stroke-width: 1; stroke-dasharray: none; stroke-linecap: butt; stroke-dashoffset: 0; stroke-linejoin: miter; stroke-miterlimit: 4; fill: rgb(102,117,127); fill-rule: nonzero; opacity: 1;" vector-effect="non-scaling-stroke"  transform=" translate(-10.35, -11.04)" d="M 17.765 6.946 L 14.229 3.41 C 13.643250222771279 2.8244270925007053 12.693749777228719 2.8244270925007053 12.107999999999999 3.41 L 8.573 6.946 C 6.445 9.038 4.723000000000001 9.961 2.5180000000000007 10.001999999999999 C 2.347000000000001 11.575 3.1830000000000007 15.194999999999999 4.485000000000001 16.654 C 6.177000000000001 18.55 9.030000000000001 19.149 11.708000000000002 19.108 C 11.574000000000002 16.745 12.145000000000001 14.686 14.229000000000003 12.602 L 17.764000000000003 9.066 C 18.045769405821623 8.785272962500267 18.20423677022477 8.403953199651385 18.204424386115406 8.006207511502886 C 18.204612002006044 7.608461823354385 18.046504443665864 7.226992732711757 17.765000000000004 6.946000000000001 z" stroke-linecap="round" />
</g>
		<g transform="matrix(22.22 0 0 22.22 -265.14 -31.88)"  >
<path style="stroke: none; stroke-width: 1; stroke-dasharray: none; stroke-linecap: butt; stroke-dashoffset: 0; stroke-linejoin: miter; stroke-miterlimit: 4; fill: rgb(204,214,221); fill-rule: nonzero; opacity: 1;" vector-effect="non-scaling-stroke"  transform=" translate(-6.05, -15.78)" d="M 2.518 10.002 C 1.767 10.016 0.962 9.93 0.064 9.75 C -0.643 14.7 7.135 22.478 12.085 21.771 C 11.892000000000001 20.834 11.757000000000001 19.952 11.709000000000001 19.108 C 7.291000000000001 17.699 3.602000000000002 14.036000000000001 2.5180000000000007 10.002 z" stroke-linecap="round" />
</g>
</g>
</g>
</svg>